Patient4_TMGait_0pt2_03_right_14_EMG.mot
version=1
nRows=23
nColumns=33
inDegrees=no
endheader
time	1LAddLong	2LGlutMax	3LGlutMed	4LIliopsoas	5LSemiMemb	6LBicFemLong	7LRecFem	8LVastMed	9LVastLat	10LGasMed	11LTibAnt	12lTibPost	13LPeroneusLong	14LSol	15LExtDigLong	16LFlexDigLong	17RAddLong	18RGlutMax	19RGlutMed	20RIliopsoas	21RSemiMemb	22RBicFemLong	23RRecFem	24RVastMed	25RVastLat	26RGasMed	27RTibAnt	28RTibPost	29RPeroneusLong	30RSol	31RExtDigLong	32RFlexDigLong
32.323	0.006409	0.040741	-0.15747	0.013123	0.009766	0.019989	0.16617	-0.023041	-0.10315	-0.032959	0.011749	0.018311	-0.006409	-0.16602	-0.003967	-0.010071	0.009766	-0.039368	-0.58563	0.23163	-0.039215	0.038605	0.25223	-0.011139	0.001221	-0.010071	0.054779	-0.001373	-0.1741	0.005188	0.00061	-0.005798
32.324	-0.007172	0.10422	-0.159	0.016327	0.006409	0.020905	0.19196	-0.004425	-0.007935	-0.086975	-0.000763	0.002136	0.18677	-0.12375	0.004425	-0.021515	-0.007477	-0.002441	-0.50262	0.37277	-0.02121	0.03006	0.22659	0.001526	0.00061	-0.007935	0.028229	-0.002441	-0.26016	-0.015106	0.000153	-0.005035
32.325	-0.00412	0.12283	-0.1178	0.021362	0.007782	0.030212	0.2945	-0.013885	-0.14603	-0.12924	0.004425	-0.015717	0.4245	0.061188	0.031433	-0.038605	-0.00824	-0.014954	-0.082397	0.24353	0.01236	0.045471	0.19318	0.004272	0.015411	-0.007019	0.050201	-0.001678	-0.21179	-0.017395	0.001526	-0.010223
32.326	-0.00946	0.12924	0.31097	0.024872	0.009155	0.00885	0.28214	-0.014343	-0.60974	-0.14099	0.026703	-0.07309	-0.099335	0.066376	0.023499	-0.058899	-0.007935	0.037842	0.70343	-0.065765	0.038757	0.074921	0.21332	0.024567	0.014648	-0.012817	0.12116	0.006866	-0.17868	-0.007324	-0.001526	-0.011139
32.327	-0.010681	0.1503	0.35111	0.020905	0.004272	0.010681	0.18356	0.021057	-0.73029	-0.097961	0.031281	-0.15579	-0.03891	0.036469	-0.020142	-0.034485	0.005493	0.044708	0.95261	-0.11887	-0.022583	0.088806	0.20371	0.010529	0.002747	-0.014038	0.15472	-0.000305	-0.13809	0.012512	-0.001526	-0.005035
32.328	-0.000153	0.13763	0.26718	-0.033569	0.01358	0.018921	0.2034	0.026398	-0.51132	0.020447	0.019684	0.13947	-0.1358	0.018311	-0.028992	0.14435	0.006866	-0.028992	-0.23163	-0.001373	-0.050659	0.075378	0.14435	0.002747	0.011597	-0.010986	0.26688	-0.002899	-0.095062	-0.014496	-0.001221	-0.004272
32.329	0.009003	0.11673	0.3096	-0.013123	0.01236	-0.009613	0.049286	0.005188	-0.34576	0.056152	0.032501	0.05127	-0.37262	0.19333	-0.029449	0.05722	-0.00412	-0.033417	0.17654	0.13825	-0.051422	0.079346	0.19562	0.01297	0.014343	-0.007172	0.3331	-0.001526	0.061798	-0.054779	-0.001831	-0.002899
32.33	0.006256	0.15549	0.33173	0.002289	0.017548	-0.015869	-0.044556	-0.007172	-0.1152	0.11536	0.001678	-0.19241	-0.29282	0.12985	-0.072937	0.001831	-0.017395	-0.061646	0.1535	0.21637	-0.052643	0.07431	0.23972	0.009918	0.016785	-0.00473	0.38422	-0.000916	0.25726	-0.12741	0.001526	-0.011902
32.331	0.029144	0.1207	0.21912	-0.010834	0.024567	-0.020905	-0.27374	0.022278	0.2565	0.045471	-0.010681	-0.30075	0.11993	-0.16464	-0.046387	-0.006714	-0.017242	-0.12238	-0.070343	0.18204	-0.048981	0.053101	0.27924	-0.024414	0.014191	-0.007019	0.13107	-0.003967	0.29526	-0.11704	-0.00351	0.000305
32.332	0.017548	0.094452	-0.094757	-0.001831	0.014343	-0.013885	-0.3009	0.015869	0.51941	-0.021667	-0.011292	0.001984	0.055847	-0.39475	-0.024719	0.017395	0.041656	-0.11032	-0.48477	0.079651	-0.051117	0.041809	0.29953	-0.049591	-0.00412	-0.011444	0.10559	-0.00412	0.095062	-0.09491	-0.003662	-0.010681
32.333	0.010834	0.051422	-0.20615	0.031586	0.011749	0.008545	-0.14908	0.047607	0.36255	0.092926	0.016022	0.07843	-0.10956	-0.69488	-0.027618	-0.024414	0.092468	-0.069885	-0.016022	-0.008087	-0.043793	0.038757	0.28015	-0.075378	-0.001221	-0.003357	-0.19791	-0.003357	-0.25162	-0.11108	0.01297	-0.01297
32.334	-0.005493	-0.006256	0.12573	0.036774	0.000458	0.02594	-0.063019	0.0354	0.25284	0.15808	0.001678	0.26611	-0.21194	-0.023651	0.035706	-0.050659	0.097351	-0.043182	0.50415	-0.11154	-0.043335	0.041962	0.29694	-0.043488	0.002899	0.001068	-0.059052	-0.000763	-0.31769	-0.25024	0.000458	-0.016785
32.335	-0.009766	-0.13718	0.11124	0.023346	-0.004425	0.023956	-0.013885	0.068512	0.16617	0.17716	-0.010376	0.30029	-0.24796	0.019684	0.006714	-0.062256	0.050507	-0.089569	0.26001	-0.17853	-0.046234	0.038605	0.3093	-0.057678	0.00412	0.008392	-0.03006	-0.003357	-0.09613	-0.23025	0.000153	-0.002136
32.336	0.003052	-0.21454	-0.087891	0.003662	0.000763	0.050507	0.041504	0.065918	-0.070343	0.066833	-0.016937	0.096741	-0.022125	0.22781	-0.041199	-0.042267	-0.018768	-0.068665	-0.065308	-0.19073	-0.059052	0.058899	0.26001	-0.033417	0.01297	0.010986	-0.15854	-0.001526	-0.13138	-0.071716	0.001068	-0.005341
32.337	0.003967	-0.20721	-0.10086	0.007324	0.011597	0.024109	0.059967	0.013275	-0.069733	0.028229	0.005493	0.000305	0.091248	0.45181	-0.060272	0.07019	-0.063934	-0.031281	-0.51285	-0.12421	-0.050812	0.07431	0.24933	-0.069122	0.00412	-0.002441	0.45685	-0.00412	-0.23407	0.11368	0.000916	-0.016174
32.338	0.008392	-0.27084	-0.27344	0.001373	0.011292	0.019073	0.097198	-0.026093	0.032043	-0.012512	-0.005798	-0.031128	-0.098267	0.2861	-0.090637	0.06546	-0.097961	-0.023804	-0.27252	-0.16342	-0.081787	0.072784	0.2475	-0.037537	0.022736	-0.008698	0.41672	-0.003357	0.005493	0.11078	-0.00061	-0.009613
32.339	-0.009918	-0.2385	-0.24048	-0.013123	0.003357	0.023041	0.1712	-0.019379	0.014343	-0.020905	-0.009766	-0.02121	-0.081024	-0.029755	-0.080872	0.010834	-0.10666	-0.054932	-0.39917	-0.054169	-0.10696	0.062408	0.24384	-0.018158	0.011597	-0.004272	-0.14648	0.005798	0.14175	-0.10727	-0.003662	-0.01236
32.34	-0.021667	-0.26245	-0.11322	-0.023193	-0.006866	0.035553	0.1387	0.01236	-0.088501	0.005188	-0.018463	-0.019989	-0.10391	0.007324	-0.027161	-0.002136	-0.032806	-0.112	-1.1775	-0.040283	-0.10178	0.073547	0.22873	-0.029755	0.005188	0.001984	-1.5454	-0.001373	0.30777	-0.18753	0.000763	0.001526
32.341	-0.023499	-0.23773	0.14557	-0.027924	0.002289	0.019989	0.19394	0.007629	-0.3598	-0.016479	0.008698	-0.017242	0.29083	0.16678	0.061951	-0.006256	0.001221	-0.066528	-0.50415	-0.057831	0.000916	0.11459	0.19104	-0.048065	0.030518	-0.010529	-0.58807	0.000153	0.12756	-0.14374	0.002136	-0.007324
32.342	-0.021973	-0.16937	0.058441	0.008087	0.002747	0.025635	0.1973	-0.007172	-0.44479	-0.039215	-0.001068	-0.016937	0.29083	0.001984	0.074463	0.010986	0.001984	0.002441	0.77377	-0.19699	0.028229	0.09552	0.18646	-0.089264	0.030365	-0.00946	0.19608	-0.002594	0.14648	0.032654	-0.002136	-0.001831
32.343	-0.028229	-0.19104	-0.032959	0.028381	0.009613	0.013123	0.16876	-0.002136	-0.35172	-0.019684	0.002594	0.018616	0.070038	-0.10696	0.057373	-0.010529	0.023041	-0.010223	1.0345	-0.17288	-0.014191	0.067902	0.30197	-0.11597	0.025787	-0.009155	0.031281	-0.010529	0.19699	0.23972	-0.005341	-0.007172
32.344	-0.012054	-0.15335	-0.049133	0.00824	0.007935	0.00946	0.12405	0.019073	-0.17273	-0.024109	0.022278	0.002747	0.077667	-0.17075	0.027466	-0.009918	0.002136	-0.0737	0.15091	0.070953	-0.023804	0.054016	0.32928	-0.045929	-0.000458	-0.005951	-0.1651	-0.003815	0.11643	0.13534	-0.001984	-0.006409
32.345	0.001678	-0.10376	-0.042114	-0.009003	0.015411	0.001678	0.053406	0.006714	-0.055695	0.005341	0.045776	-0.00946	-0.22186	-0.21118	0.010223	-0.020752	0.002747	-0.13031	-0.76355	0.27466	-0.034027	0.032654	0.29205	-0.12787	-0.00824	-0.000305	-0.028076	-0.00351	-0.025177	0.003815	-0.002747	-0.012817
